<svg width="1600" height="1024" viewBox="0 0 1600 1024" fill="none" xmlns="http://www.w3.org/2000/svg">
  <defs>
    <linearGradient id="bg" x1="181.5" y1="109.5" x2="1344.5" y2="906.5" gradientUnits="userSpaceOnUse">
      <stop stop-color="#F2F7FF"/>
      <stop offset="0.42" stop-color="#C6DBFF"/>
      <stop offset="1" stop-color="#8FB8FF"/>
    </linearGradient>
    <radialGradient id="glowLeft" cx="0" cy="0" r="1" gradientUnits="userSpaceOnUse" gradientTransform="translate(250 210) rotate(33.5) scale(704 488)">
      <stop stop-color="white" stop-opacity="0.94"/>
      <stop offset="1" stop-color="white" stop-opacity="0"/>
    </radialGradient>
    <radialGradient id="glowCenter" cx="0" cy="0" r="1" gradientUnits="userSpaceOnUse" gradientTransform="translate(815 540) rotate(34.4) scale(910 678)">
      <stop stop-color="white" stop-opacity="0.22"/>
      <stop offset="1" stop-color="white" stop-opacity="0"/>
    </radialGradient>
    <radialGradient id="glowRight" cx="0" cy="0" r="1" gradientUnits="userSpaceOnUse" gradientTransform="translate(1350 255) rotate(141.7) scale(725 422)">
      <stop stop-color="#DDEBFF" stop-opacity="0.9"/>
      <stop offset="1" stop-color="#DDEBFF" stop-opacity="0"/>
    </radialGradient>
    <linearGradient id="streak" x1="100" y1="390" x2="1410" y2="160" gradientUnits="userSpaceOnUse">
      <stop stop-color="white" stop-opacity="0"/>
      <stop offset="0.26" stop-color="white" stop-opacity="0.55"/>
      <stop offset="0.54" stop-color="#FFF8EA" stop-opacity="0.82"/>
      <stop offset="0.77" stop-color="white" stop-opacity="0.46"/>
      <stop offset="1" stop-color="white" stop-opacity="0"/>
    </linearGradient>
    <linearGradient id="streakSoft" x1="150" y1="480" x2="1475" y2="410" gradientUnits="userSpaceOnUse">
      <stop stop-color="white" stop-opacity="0"/>
      <stop offset="0.4" stop-color="white" stop-opacity="0.4"/>
      <stop offset="0.7" stop-color="white" stop-opacity="0.18"/>
      <stop offset="1" stop-color="white" stop-opacity="0"/>
    </linearGradient>
    <filter id="blur40" x="-160" y="-160" width="1920" height="1344" filterUnits="userSpaceOnUse" color-interpolation-filters="sRGB">
      <feGaussianBlur stdDeviation="32"/>
    </filter>
    <filter id="blur18" x="-100" y="-100" width="1800" height="1224" filterUnits="userSpaceOnUse" color-interpolation-filters="sRGB">
      <feGaussianBlur stdDeviation="14"/>
    </filter>
    <filter id="blur8" x="-50" y="-50" width="1700" height="1124" filterUnits="userSpaceOnUse" color-interpolation-filters="sRGB">
      <feGaussianBlur stdDeviation="6"/>
    </filter>
  </defs>

  <rect width="1600" height="1024" fill="url(#bg)"/>
  <rect width="1600" height="1024" fill="url(#glowLeft)"/>
  <rect width="1600" height="1024" fill="url(#glowCenter)"/>
  <rect width="1600" height="1024" fill="url(#glowRight)"/>

  <g opacity="0.74" filter="url(#blur18)">
    <path d="M-31 389C162 470 353 469 530 433C730 393 814 316 994 270C1138 233 1308 206 1640 184" stroke="url(#streak)" stroke-width="12" stroke-linecap="round"/>
    <path d="M-37 420C216 410 451 459 633 486C808 512 956 527 1178 496C1342 473 1470 448 1650 423" stroke="url(#streakSoft)" stroke-width="11" stroke-linecap="round"/>
    <path d="M1220 332C1326 302 1420 252 1541 199C1604 171 1653 148 1719 114" stroke="url(#streakSoft)" stroke-width="9" stroke-linecap="round"/>
  </g>

  <g opacity="0.75" filter="url(#blur8)" stroke="#FDFDFE" stroke-opacity="0.48" stroke-width="1.6">
    <path d="M885 660L960 604L1045 638L1067 734L993 783L905 741L885 660Z"/>
    <path d="M960 604L1048 558L1138 602L1147 696L1067 734"/>
    <path d="M1048 558L1156 507L1246 567L1239 667L1147 696"/>
    <path d="M1156 507L1264 459L1354 520L1340 619L1239 667"/>
    <path d="M1264 459L1382 406L1481 475L1452 575L1340 619"/>
    <path d="M993 783L1076 820L1187 780L1239 667"/>
    <path d="M1076 820L1198 869L1314 831L1354 720L1239 667"/>
    <path d="M1198 869L1321 916L1444 873L1474 760L1354 720"/>
    <path d="M905 741L820 806L845 911L971 958L1076 820"/>
    <path d="M971 958L1098 998L1223 962L1321 916"/>
    <path d="M1444 873L1560 919L1671 875"/>
    <path d="M1382 406L1502 357L1610 421"/>
    <path d="M1264 459L1222 382L1304 317L1415 336L1502 357"/>
    <path d="M1156 507L1110 421L1222 382"/>
    <path d="M1048 558L1002 464L1110 421"/>
    <path d="M960 604L914 514L1002 464"/>
  </g>

  <g filter="url(#blur40)" opacity="0.72">
    <ellipse cx="1040" cy="822" rx="430" ry="188" fill="white" fill-opacity="0.32"/>
    <ellipse cx="1340" cy="760" rx="362" ry="146" fill="#DCEBFF" fill-opacity="0.36"/>
    <ellipse cx="1418" cy="280" rx="236" ry="108" fill="#EAF3FF" fill-opacity="0.24"/>
  </g>

  <g opacity="0.98" fill="white">
    <circle cx="1002" cy="464" r="4.6"/>
    <circle cx="1110" cy="421" r="4.6"/>
    <circle cx="1222" cy="382" r="5.1"/>
    <circle cx="1304" cy="317" r="3.8"/>
    <circle cx="1415" cy="336" r="4.2"/>
    <circle cx="1502" cy="357" r="4.8"/>
    <circle cx="914" cy="514" r="4.2"/>
    <circle cx="1048" cy="558" r="4.4"/>
    <circle cx="1156" cy="507" r="4.8"/>
    <circle cx="1264" cy="459" r="5"/>
    <circle cx="1382" cy="406" r="5.2"/>
    <circle cx="1481" cy="475" r="4.5"/>
    <circle cx="885" cy="660" r="4.6"/>
    <circle cx="960" cy="604" r="5.4"/>
    <circle cx="1045" cy="638" r="4.7"/>
    <circle cx="1138" cy="602" r="4.9"/>
    <circle cx="1246" cy="567" r="4.6"/>
    <circle cx="1340" cy="619" r="5.1"/>
    <circle cx="1452" cy="575" r="4.5"/>
    <circle cx="905" cy="741" r="4.8"/>
    <circle cx="993" cy="783" r="5.6"/>
    <circle cx="1076" cy="820" r="5.2"/>
    <circle cx="1187" cy="780" r="4.8"/>
    <circle cx="1314" cy="831" r="5"/>
    <circle cx="1444" cy="873" r="5.5"/>
    <circle cx="845" cy="911" r="4.4"/>
    <circle cx="971" cy="958" r="5.1"/>
    <circle cx="1098" cy="998" r="4.5"/>
    <circle cx="1223" cy="962" r="4.8"/>
    <circle cx="1321" cy="916" r="5.2"/>
    <circle cx="1560" cy="919" r="4.4"/>
    <circle cx="1610" cy="421" r="4.1"/>
    <circle cx="1671" cy="875" r="4.2"/>
  </g>

  <g opacity="0.42" fill="white">
    <circle cx="671" cy="229" r="1.5"/>
    <circle cx="701" cy="266" r="1.2"/>
    <circle cx="758" cy="301" r="1.4"/>
    <circle cx="817" cy="318" r="1.3"/>
    <circle cx="931" cy="260" r="1.5"/>
    <circle cx="1013" cy="291" r="1.3"/>
    <circle cx="1101" cy="370" r="1.4"/>
    <circle cx="784" cy="438" r="1.2"/>
    <circle cx="648" cy="405" r="1.3"/>
    <circle cx="562" cy="332" r="1.1"/>
    <circle cx="1144" cy="744" r="1.2"/>
    <circle cx="1240" cy="706" r="1.5"/>
    <circle cx="1303" cy="693" r="1.3"/>
    <circle cx="1399" cy="652" r="1.2"/>
    <circle cx="1504" cy="732" r="1.4"/>
  </g>
</svg>
